<?xml version="1.0" encoding="utf-8"?>
<!-- Generator: Adobe Illustrator 26.4.1, SVG Export Plug-In . SVG Version: 6.00 Build 0)  -->
<svg version="1.1" xmlns="http://www.w3.org/2000/svg" xmlns:xlink="http://www.w3.org/1999/xlink" x="0px" y="0px"
	 viewBox="0 0 750 500" style="enable-background:new 0 0 750 500;" xml:space="preserve">
<style type="text/css">
	.st0{fill:#92E3A9;}
	.st1{opacity:0.8;fill:#FFFFFF;}
	.st2{fill:none;stroke:#263238;stroke-miterlimit:10;}
	.st3{fill:#263238;}
	.st4{opacity:0.31;fill:#FFFFFF;}
	.st5{opacity:0.5;fill:#FFFFFF;}
	.st6{opacity:0.33;fill:#FFFFFF;}
	.st7{fill:#FFFFFF;}
	.st8{fill:#263238;stroke:#263238;stroke-miterlimit:10;}
	.st9{fill:#FFFFFF;stroke:#263238;stroke-miterlimit:10;}
</style>
<g id="Background_Simple">
	<g>
		<path class="st0" d="M704.18,191.6c-7.88-28.38-60.41,2.49-60.41,2.49l13.75-24.94c1.63-2.47,3.1-5.09,4.35-7.9
			c6.9-15.44,6.81-31.95-0.04-46.34c-1.88-8.73-7.59-21.21-23.32-34.89c-29.77-25.88-129.58-43.58-158.47-39.65
			c-28.89,3.93,26.27,16.09,26.27,16.09l-4.37-0.04c-84.15-8.92-168.82-10.07-252.83-8.33c-21.07,0.44-42.2,1.13-62.82,4.69
			c-5.93,1.02-12.32,2.59-15.85,7.38c-15.68,21.27,48.47,23.34,58.53,22.93c-44.06,5.73-93.02,7.48-134,24.51
			c-5.72,2.38-11.38,5.19-15.69,9.59s-7.12,10.63-6.14,16.9c2.82,18.2,27.89,23.59,42.11,27.63c0,0-81.72,54.34-72.09,81.92
			c3.98,11.4,9.92,23.4,20.91,35.22c-6.27,7.87-11.79,16.13-16.05,24.86c-2.61,5.34-6.03,12.66-3.11,18.8
			c14.88,31.33,240.61,138.86,421.49,108.17c48.05-8.15,95.91-21.63,138.03-45.48c41.92-23.73,84.64-62.92,95.2-112.35
			c0.35-1.63,0.6-3.21,0.78-4.74C706.95,245.35,710.78,215.34,704.18,191.6z"/>
		<path class="st1" d="M704.18,191.6c-7.88-28.38-60.41,2.49-60.41,2.49l13.75-24.94c1.63-2.47,3.1-5.09,4.35-7.9
			c6.9-15.44,6.81-31.95-0.04-46.34c-1.88-8.73-7.59-21.21-23.32-34.89c-29.77-25.88-129.58-43.58-158.47-39.65
			c-28.89,3.93,26.27,16.09,26.27,16.09l-4.37-0.04c-84.15-8.92-168.82-10.07-252.83-8.33c-21.07,0.44-42.2,1.13-62.82,4.69
			c-5.93,1.02-12.32,2.59-15.85,7.38c-15.68,21.27,48.47,23.34,58.53,22.93c-44.06,5.73-93.02,7.48-134,24.51
			c-5.72,2.38-11.38,5.19-15.69,9.59s-5.99,10.56-6.14,16.9c-0.4,16.78,26.56,23.01,42.11,27.63c0,0-81.72,54.34-72.09,81.92
			c3.98,11.4,9.92,23.4,20.91,35.22c-6.27,7.87-11.79,16.13-16.05,24.86c-2.61,5.34-6.03,12.66-3.11,18.8
			c14.88,31.33,240.61,138.86,421.49,108.17c48.05-8.15,95.91-21.63,138.03-45.48c41.92-23.73,84.64-62.92,95.2-112.35
			c0.35-1.63,0.6-3.21,0.78-4.74C706.95,245.35,710.78,215.34,704.18,191.6z"/>
	</g>
</g>
<g id="Birds">
	<g>
		<path class="st2" d="M557.96,160.59c0,0,1.02-3.06,6.12-4.08c5.1-1.02,11.22,4.59,11.22,4.59s4.08-8.16,8.16-8.67
			c4.08-0.51,8.67,3.06,8.67,3.06"/>
		<path class="st2" d="M544.69,179.98c0,0,1.02-3.06,6.12-4.08c5.1-1.02,11.22,4.59,11.22,4.59s4.08-8.16,8.16-8.67
			c4.08-0.51,8.67,3.06,8.67,3.06"/>
		<path class="st2" d="M593.16,180.1c0,0,0.78-2.33,4.66-3.11c3.88-0.78,8.54,3.5,8.54,3.5s3.11-6.21,6.21-6.6
			c3.11-0.39,6.6,2.33,6.6,2.33"/>
		<path class="st2" d="M649.86,200.65c0,0,0.51-1.53,3.06-2.04c2.55-0.51,5.6,2.29,5.6,2.29s2.04-4.08,4.08-4.33
			c2.04-0.25,4.33,1.53,4.33,1.53"/>
	</g>
</g>
<g id="Clouds">
	<path class="st2" d="M378.14,155.19c-5.27-23.69-32.58-41.34-56.37-37.96c-5.93,0.84-11.7,3.06-16.16,7.16
		c-6.08,5.59-4.64,11.94-7.64,18.87c-0.84,1.92-2.46,3.63-4.53,3.99c-5.92,1.01-10.69-4.89-16.68-4.93
		c-4.48-0.03-10.21,2.44-12.71,6.31c-2.33,3.6-0.71,9.89-4.89,12.28c-4.68,2.68-10.38-2.41-15.45-0.57
		c-6.29,2.29-3.43,6.86-5.72,9.73c-2.29,2.86-6.86,1.72-13.16,1.14c-6.29-0.57-11.44,6.86-11.44,6.86h198.51
		c0,0,1.72-2.86-5.72-14.3c-7.44-11.44-17.73-3.43-22.31-3.43C379.29,160.34,378.14,155.2,378.14,155.19z"/>
	<path class="st2" d="M433.42,117.14c-2.12-9.5-13.07-16.59-22.62-15.23c-2.38,0.34-4.69,1.23-6.48,2.87
		c-2.44,2.24-1.86,4.79-3.07,7.57c-0.34,0.77-0.99,1.46-1.82,1.6c-2.37,0.41-4.29-1.96-6.69-1.98c-1.8-0.01-4.1,0.98-5.1,2.53
		c-0.93,1.45-0.28,3.97-1.96,4.93c-1.88,1.07-4.17-0.97-6.2-0.23c-2.52,0.92-1.38,2.75-2.3,3.9c-0.92,1.15-2.75,0.69-5.28,0.46
		c-2.52-0.23-4.59,2.75-4.59,2.75h79.64c0,0,0.69-1.15-2.3-5.74c-2.98-4.59-7.11-1.38-8.95-1.38
		C433.88,119.21,433.42,117.15,433.42,117.14z"/>
	<path class="st2" d="M603.33,233.6c-2.12-9.5-13.07-16.59-22.62-15.23c-2.38,0.34-4.69,1.23-6.48,2.87
		c-2.44,2.24-1.86,4.79-3.07,7.57c-0.34,0.77-0.99,1.46-1.82,1.6c-2.37,0.41-4.29-1.96-6.69-1.98c-1.8-0.01-4.1,0.98-5.1,2.53
		c-0.93,1.45-0.28,3.97-1.96,4.93c-1.88,1.07-4.16-0.97-6.2-0.23c-2.52,0.92-1.38,2.75-2.3,3.9c-0.92,1.15-2.75,0.69-5.28,0.46
		c-2.52-0.23-4.59,2.75-4.59,2.75h79.64c0,0,0.69-1.15-2.3-5.74c-2.98-4.59-7.11-1.38-8.95-1.38
		C603.79,235.67,603.33,233.6,603.33,233.6z"/>
	<path class="st2" d="M475.58,223.2c-3.24-14.56-20.02-25.4-34.64-23.32c-3.64,0.52-7.19,1.88-9.93,4.4
		c-3.73,3.44-2.85,7.34-4.7,11.59c-0.51,1.18-1.51,2.23-2.79,2.45c-3.64,0.62-6.57-3-10.25-3.03c-2.75-0.02-6.27,1.5-7.81,3.88
		c-1.43,2.21-0.43,6.08-3.01,7.55c-2.88,1.64-6.38-1.48-9.49-0.35c-3.87,1.41-2.11,4.22-3.52,5.98c-1.41,1.76-4.22,1.05-8.09,0.7
		c-3.87-0.35-7.03,4.22-7.03,4.22h121.98c0,0,1.05-1.76-3.52-8.79c-4.57-7.03-10.9-2.11-13.71-2.11
		C476.28,226.37,475.58,223.21,475.58,223.2z"/>
</g>
<g id="Mountains">
	<path class="st3" d="M504.27,390.9c0,0-7.29-7.55-5.24-7.33c2.05,0.23,5.88,5.88,5.88,5.88s0.05-12.45,1.87-9.72
		c1.82,2.73-0.42,9.78-0.42,9.78s5.2-8.11,5.19-6.79c-0.04,4.1-4.01,7.31-4.01,7.31s8.33-6.17,6.96-3.67
		c-1.36,2.5-6.69,4.87-6.69,4.87s9.6-1.94,6.19-0.57c-3.41,1.36-6.66,2.3-6.66,2.3h-2.65c0,0-9.06-4.55-5.65-3.87
		C502.45,389.76,504.27,390.9,504.27,390.9z"/>
	<path class="st3" d="M600.56,367.26c0,0-5.67-5.88-4.08-5.7c1.59,0.18,4.57,4.57,4.57,4.57s0.04-9.69,1.46-7.57
		c1.42,2.12-0.32,7.61-0.32,7.61s4.05-6.31,4.04-5.28c-0.03,3.19-3.12,5.69-3.12,5.69s6.48-4.8,5.42-2.85
		c-1.06,1.95-5.21,3.79-5.21,3.79s7.47-1.51,4.82-0.45c-2.65,1.06-5.18,1.79-5.18,1.79h-2.06c0,0-7.05-3.54-4.4-3.01
		C599.14,366.38,600.56,367.26,600.56,367.26z"/>
	<path class="st3" d="M689.95,346.17c0,0-5.67-5.88-4.08-5.7c1.59,0.18,4.57,4.57,4.57,4.57s0.04-9.69,1.46-7.57
		c1.42,2.12-0.32,7.61-0.32,7.61s4.05-6.31,4.04-5.28c-0.03,3.19-3.12,5.69-3.12,5.69s6.48-4.8,5.42-2.85
		c-1.06,1.95-5.21,3.79-5.21,3.79s7.47-1.51,4.82-0.45c-2.65,1.06-5.18,1.79-5.18,1.79h-2.06c0,0-7.05-3.54-4.4-3.01
		C688.54,345.29,689.95,346.17,689.95,346.17z"/>
	<path class="st0" d="M576.02,394.34c0,0-6.78-7.02-4.88-6.81c1.9,0.21,5.46,5.46,5.46,5.46s0.05-11.58,1.74-9.04
		c1.69,2.54-0.39,9.09-0.39,9.09s4.83-7.54,4.82-6.31c-0.03,3.81-3.72,6.79-3.72,6.79s7.74-5.73,6.47-3.41
		c-1.27,2.33-6.22,4.52-6.22,4.52s8.92-1.8,5.75-0.53c-3.17,1.27-6.19,2.14-6.19,2.14h-2.47c0,0-8.43-4.23-5.26-3.59
		C574.33,393.29,576.02,394.34,576.02,394.34z"/>
	<g>
		<polyline class="st2" points="441.89,363.88 381.93,296.64 368.79,307.15 303.05,208.17 245.82,220.92 228.71,188.95 
			212.07,188.08 180.55,125.91 133.4,168.93 110.67,160.81 27.87,245.24 		"/>
		<line class="st2" x1="453.14" y1="376.48" x2="446.85" y2="369.43"/>
		<line class="st2" x1="215.09" y1="229.14" x2="210.13" y2="230.48"/>
		<line class="st2" x1="245.7" y1="220.85" x2="220.67" y2="227.63"/>
		<polyline class="st2" points="151.26,192.07 165.28,171.38 164.33,164.28 180.42,131.63 		"/>
		<line class="st2" x1="145.4" y1="200.72" x2="148.92" y2="195.53"/>
		<line class="st2" x1="123.65" y1="212.96" x2="100.92" y2="243.78"/>
		<polyline class="st2" points="111.81,164.28 117.49,177.06 130.26,187.47 128.84,205.93 125.75,210.13 		"/>
		<polyline class="st2" points="228.71,188.95 216.86,200.25 212.6,193.15 		"/>
		<polyline class="st2" points="707.01,315.44 614.99,250.53 587.06,289.97 552.55,278.47 499.15,353.23 464.64,345.83 
			447.39,360.62 		"/>
		<polyline class="st2" points="614.99,250.53 604.05,298.62 591.15,292.98 		"/>
		<polyline class="st2" points="552.85,281.29 525.83,359.91 507.29,356.68 		"/>
	</g>
</g>
<g id="Trees_2">
	<g>
		<path class="st0" d="M551.6,275.67c-23.95,0-43.36,19.28-43.36,43.06c0,11.03,4.17,21.08,11.04,28.7
			c3.14-0.46,8.86-0.77,15.19,1.38c8.38,2.85,13.6,7.52,14.75,8.61h3.89c1.14-1.09,6.37-5.76,14.75-8.61
			c6.89-2.34,13.06-1.76,15.96-1.26c6.93-7.63,11.15-17.74,11.15-28.82C594.96,294.95,575.54,275.67,551.6,275.67z"/>
		<path class="st3" d="M571.78,336c-1.33,0.65-2.66,1.31-3.96,2.01c-1.31,0.71-2.59,1.49-3.79,2.34c-0.45,0.31-0.9,0.64-1.34,0.96
			l7.1-13.23l-9.75,15.26c-0.99,0.79-1.96,1.61-2.91,2.43c-1.57,1.37-3.1,2.77-4.6,4.21l-0.49-14.35l10.2-15.52l-10.27,13.35
			l-0.44-12.85l-0.73,14.38l0,0l0,0l-0.73,14.41c-1.3-1.23-2.63-2.44-3.99-3.62c-1.07-0.93-2.16-1.84-3.27-2.73l-9.22-15.75
			l6.77,13.89c-0.39-0.28-0.78-0.57-1.17-0.84c-1.2-0.85-2.48-1.62-3.79-2.34c-1.3-0.7-2.63-1.36-3.96-2.01
			c-2.67-1.28-5.39-2.48-8.2-3.47c2.73,1.16,5.35,2.51,7.91,3.94c1.28,0.72,2.54,1.46,3.78,2.23c1.22,0.77,2.4,1.59,3.51,2.49
			c2.25,1.78,4.34,3.72,6.36,5.72c1.77,1.75,3.48,3.57,5.12,5.4l-0.93,18.29h4.27l-0.61-17.54c1.83-2.1,3.78-4.16,5.78-6.15
			c2.02-2,4.12-3.95,6.36-5.72c1.12-0.9,2.29-1.72,3.51-2.49c1.24-0.77,2.5-1.51,3.78-2.23c2.56-1.43,5.18-2.79,7.91-3.94
			C577.17,333.52,574.45,334.72,571.78,336z"/>
	</g>
	<g>
		<path class="st0" d="M218.71,334.76c0,12.37-6.94,13.31-15.5,13.31c-8.56,0-15.5-0.93-15.5-13.31c0-12.37,6.94-38.24,15.5-38.24
			C211.77,296.52,218.71,322.38,218.71,334.76z"/>
		<polygon class="st3" points="208.45,340.37 205.89,340.55 212.56,336.05 207.8,338.46 208.45,336.57 206.27,339.23 203.71,340.52 
			203.51,331.64 204.86,328.35 203.48,330.2 203.36,325.05 207.61,319.38 203.33,323.76 203.07,312.42 202.84,319.68 200.12,316.64 
			202.8,321.07 202.44,332.57 200.06,331.02 197.9,327.19 198.77,330.17 194.53,327.4 202.39,334.18 201.2,371.91 204.43,371.91 
			203.75,341.99 204.49,341.49 		"/>
	</g>
	<g>
		<path class="st0" d="M635.52,292.15c0,24.18-13.56,26-30.28,26c-16.72,0-30.28-1.83-30.28-26s13.56-74.71,30.28-74.71
			C621.96,217.43,635.52,267.97,635.52,292.15z"/>
		<path class="st4" d="M635.52,292.15c0,24.18-13.56,26-30.28,26c-16.72,0-30.28-1.83-30.28-26s13.56-74.71,30.28-74.71
			C621.96,217.43,635.52,267.97,635.52,292.15z"/>
		<polygon class="st3" points="615.47,303.12 610.47,303.46 623.51,294.67 614.2,299.38 615.47,295.7 611.22,300.88 606.22,303.41 
			605.82,286.05 608.47,279.62 605.76,283.24 605.53,273.17 613.83,262.11 605.47,270.66 604.96,248.5 604.52,262.69 599.19,256.75 
			604.43,265.41 603.72,287.87 599.09,284.84 594.87,277.36 596.56,283.19 588.27,277.77 603.62,291.01 601.3,364.74 607.62,364.74 
			606.28,306.28 607.74,305.3 		"/>
	</g>
	<g>
		<path class="st0" d="M700.34,301.66c0,12.37-6.94,13.31-15.5,13.31c-8.56,0-15.5-0.93-15.5-13.31c0-12.37,6.94-38.24,15.5-38.24
			C693.4,263.43,700.34,289.29,700.34,301.66z"/>
		<path class="st5" d="M700.34,301.66c0,12.37-6.94,13.31-15.5,13.31c-8.56,0-15.5-0.93-15.5-13.31c0-12.37,6.94-38.24,15.5-38.24
			C693.4,263.43,700.34,289.29,700.34,301.66z"/>
		<polygon class="st3" points="690.08,307.28 687.52,307.45 694.19,302.95 689.42,305.36 690.08,303.48 687.9,306.13 685.34,307.43 
			685.14,298.54 686.49,295.25 685.11,297.1 684.99,291.95 689.23,286.29 684.96,290.67 684.7,279.33 684.47,286.58 681.75,283.55 
			684.43,287.98 684.06,299.47 681.69,297.92 679.53,294.09 680.4,297.08 676.16,294.3 684.01,301.08 682.82,338.81 686.06,338.81 
			685.38,308.9 686.12,308.39 		"/>
	</g>
	<g>
		<path class="st0" d="M68.67,291.2c0,12.37-6.94,13.31-15.5,13.31s-15.5-0.93-15.5-13.31c0-12.37,6.94-38.24,15.5-38.24
			S68.67,278.83,68.67,291.2z"/>
		<path class="st5" d="M68.67,291.2c0,12.37-6.94,13.31-15.5,13.31s-15.5-0.93-15.5-13.31c0-12.37,6.94-38.24,15.5-38.24
			S68.67,278.83,68.67,291.2z"/>
		<polygon class="st3" points="58.41,296.81 55.85,296.99 62.52,292.49 57.75,294.9 58.41,293.02 56.23,295.67 53.67,296.96 
			53.47,288.08 54.82,284.79 53.44,286.64 53.32,281.49 57.56,275.83 53.29,280.2 53.03,268.87 52.8,276.12 50.08,273.08 
			52.76,277.52 52.39,289.01 50.02,287.46 47.86,283.63 48.73,286.62 44.49,283.84 52.34,290.62 51.15,328.35 54.39,328.35 
			53.71,298.43 54.45,297.93 		"/>
	</g>
	<g>
		<path class="st0" d="M145.46,263.14c-23.95,0-43.36,19.28-43.36,43.06c0,11.03,4.17,21.08,11.04,28.7
			c3.14-0.45,8.86-0.77,15.19,1.38c8.38,2.85,13.6,7.52,14.75,8.61h3.89c1.14-1.09,6.37-5.76,14.75-8.61
			c6.89-2.34,13.06-1.76,15.96-1.26c6.93-7.63,11.15-17.74,11.15-28.82C188.82,282.42,169.4,263.14,145.46,263.14z"/>
		<path class="st6" d="M145.46,263.14c-23.95,0-43.36,19.28-43.36,43.06c0,11.03,4.17,21.08,11.04,28.7
			c3.14-0.45,8.86-0.77,15.19,1.38c8.38,2.85,13.6,7.52,14.75,8.61h3.89c1.14-1.09,6.37-5.76,14.75-8.61
			c6.89-2.34,13.06-1.76,15.96-1.26c6.93-7.63,11.15-17.74,11.15-28.82C188.82,282.42,169.4,263.14,145.46,263.14z"/>
		<path class="st3" d="M165.64,323.48c-1.33,0.65-2.66,1.31-3.96,2.01c-1.31,0.71-2.59,1.49-3.79,2.34
			c-0.45,0.31-0.9,0.64-1.34,0.96l7.1-13.23l-9.75,15.26c-0.99,0.79-1.96,1.61-2.91,2.43c-1.57,1.37-3.1,2.77-4.6,4.21l-0.49-14.35
			l10.2-15.53l-10.27,13.35l-0.44-12.85l-0.73,14.38l0,0l0,0l-0.73,14.41c-1.3-1.23-2.63-2.44-3.99-3.62
			c-1.07-0.93-2.16-1.84-3.27-2.73l-9.22-15.75l6.77,13.89c-0.39-0.28-0.78-0.57-1.17-0.84c-1.2-0.85-2.48-1.62-3.79-2.34
			c-1.3-0.7-2.63-1.36-3.96-2.01c-2.67-1.28-5.39-2.48-8.2-3.47c2.73,1.16,5.35,2.51,7.91,3.94c1.28,0.72,2.54,1.46,3.78,2.23
			c1.22,0.77,2.4,1.59,3.51,2.49c2.25,1.78,4.34,3.72,6.36,5.72c1.77,1.75,3.48,3.57,5.12,5.41l-0.93,18.29h4.27l-0.61-17.54
			c1.83-2.1,3.78-4.16,5.78-6.15c2.02-2,4.12-3.95,6.36-5.72c1.12-0.9,2.29-1.72,3.51-2.49c1.24-0.77,2.5-1.51,3.78-2.23
			c2.56-1.43,5.18-2.79,7.91-3.94C171.04,321,168.31,322.2,165.64,323.48z"/>
	</g>
</g>
<g id="Text">
	<g>
		<path class="st3" d="M265.84,391.65v-39.68h-51.64v-25.4l44.29-104.96h37.79V327.2h16.37v24.77h-16.37v39.68H265.84z
			 M239.81,327.2h26.03v-72.21L239.81,327.2z"/>
		<path class="st3" d="M373.53,391.74c-10.22,0-18.68-2.1-25.4-6.3c-6.72-4.2-11.76-9.97-15.11-17.32
			c-3.36-7.35-5.04-15.85-5.04-25.51v-76.2c0-9.94,1.61-18.65,4.83-26.14c3.22-7.49,8.19-13.33,14.9-17.53s15.32-6.3,25.82-6.3
			c10.36,0,18.86,2.1,25.51,6.3c6.65,4.2,11.58,10.04,14.8,17.53c3.22,7.49,4.83,16.2,4.83,26.14v76.2c0,9.66-1.68,18.16-5.04,25.51
			c-3.36,7.35-8.4,13.12-15.12,17.32C391.79,389.64,383.47,391.74,373.53,391.74z M373.53,363.19c3.78,0,6.51-1.19,8.19-3.57
			c1.68-2.38,2.8-5.21,3.36-8.5c0.56-3.29,0.84-6.33,0.84-9.13v-74.94c0-3.08-0.25-6.3-0.73-9.66c-0.49-3.36-1.57-6.26-3.25-8.71
			c-1.68-2.45-4.48-3.67-8.4-3.67c-3.92,0-6.75,1.23-8.5,3.67c-1.75,2.45-2.87,5.35-3.36,8.71c-0.49,3.36-0.73,6.58-0.73,9.66v74.94
			c0,2.8,0.28,5.85,0.84,9.13c0.56,3.29,1.75,6.12,3.57,8.5C367.16,362,369.89,363.19,373.53,363.19z"/>
		<path class="st3" d="M487.94,391.65v-39.68H436.3v-25.4l44.29-104.96h37.79V327.2h16.37v24.77h-16.37v39.68H487.94z M461.91,327.2
			h26.03v-72.21L461.91,327.2z"/>
	</g>
</g>
<g id="Floor_1_">
	<g>
		<path class="st7" d="M720.11,309.64c-65.38,42.86-194.49,72.03-343.1,72.03c-153.16,0-285.63-30.99-348.94-76.01V478h692.04
			V309.64z"/>
		<path class="st2" d="M705.91,318.19c-68.82,38.14-190.4,63.48-328.9,63.48c-153.16,0-285.63-30.99-348.94-76.01"/>
		<path class="st2" d="M720.41,309.44c-2.95,1.94-6.02,3.85-9.23,5.73"/>
	</g>
</g>
<g id="Trees_1">
	<g>
		<g>
			<path class="st0" d="M678.37,299.65c0,25.28-14.18,27.19-31.66,27.19s-31.66-1.91-31.66-27.19c0-25.28,14.18-78.13,31.66-78.13
				S678.37,274.37,678.37,299.65z"/>
			<polygon class="st3" points="657.41,311.12 652.17,311.48 665.82,302.29 656.07,307.21 657.41,303.36 652.96,308.79 
				647.73,311.43 647.32,293.27 650.09,286.56 647.25,290.33 647.01,279.81 655.69,268.24 646.95,277.18 646.42,254.02 
				645.95,268.84 640.39,262.64 645.86,271.69 645.12,295.18 640.28,292.01 635.86,284.19 637.63,290.28 628.97,284.62 
				645.02,298.46 642.59,375.56 649.2,375.56 647.8,314.43 649.33,313.4 			"/>
		</g>
		<path class="st3" d="M644.57,376.24c0,0-11.69-12.11-8.41-11.74c3.28,0.36,9.42,9.42,9.42,9.42s0.09-19.96,3-15.59
			c2.92,4.37-0.67,15.67-0.67,15.67s8.34-13,8.32-10.88c-0.06,6.57-6.42,11.71-6.42,11.71s13.35-9.89,11.16-5.88
			c-2.19,4.01-10.72,7.8-10.72,7.8s15.39-3.1,9.92-0.92c-5.47,2.19-10.67,3.69-10.67,3.69h-4.25c0,0-14.53-7.29-9.06-6.2
			C641.66,374.41,644.57,376.24,644.57,376.24z"/>
	</g>
	<g>
		<path class="st3" d="M84.72,361.2c0,0-10.11-10.47-7.27-10.16c2.84,0.32,8.15,8.15,8.15,8.15s0.07-17.26,2.6-13.48
			c2.52,3.78-0.58,13.55-0.58,13.55s7.21-11.25,7.19-9.41c-0.05,5.68-5.55,10.13-5.55,10.13s11.54-8.55,9.65-5.08
			c-1.89,3.47-9.27,6.74-9.27,6.74s13.31-2.68,8.58-0.79c-4.73,1.89-9.23,3.19-9.23,3.19h-3.68c0,0-12.57-6.3-7.84-5.36
			C82.2,359.63,84.72,361.2,84.72,361.2z"/>
		<g>
			<path class="st0" d="M121.26,285.87c0,25.31-14.19,27.22-31.7,27.22c-17.51,0-31.7-1.91-31.7-27.22s14.19-78.21,31.7-78.21
				C107.07,207.66,121.26,260.56,121.26,285.87z"/>
			<polygon class="st3" points="100.28,297.35 95.04,297.72 108.69,288.51 98.94,293.44 100.28,289.59 95.82,295.02 90.59,297.66 
				90.18,279.49 92.95,272.76 90.11,276.54 89.87,266 98.55,254.42 89.81,263.38 89.28,240.18 88.81,255.03 83.24,248.81 
				88.72,257.88 87.98,281.39 83.13,278.22 78.71,270.39 80.48,276.49 71.8,270.82 87.87,284.68 85.44,361.86 92.06,361.86 
				90.66,300.67 92.19,299.64 			"/>
		</g>
	</g>
</g>
<g id="Plants_1_">
	<path class="st3" d="M195.39,387.51c0,0-10.11-10.47-7.27-10.16c2.84,0.32,8.15,8.15,8.15,8.15s0.07-17.26,2.6-13.48
		c2.52,3.78-0.58,13.55-0.58,13.55s7.21-11.25,7.19-9.41c-0.05,5.68-5.55,10.13-5.55,10.13s11.54-8.55,9.65-5.08
		c-1.89,3.47-9.27,6.74-9.27,6.74s13.31-2.68,8.58-0.79c-4.73,1.89-9.23,3.19-9.23,3.19h-3.68c0,0-12.57-6.3-7.84-5.36
		C192.87,385.94,195.39,387.51,195.39,387.51z"/>
	<path class="st3" d="M249.04,410.46c0,0-10.11-10.47-7.27-10.16c2.84,0.32,8.15,8.15,8.15,8.15s0.07-17.26,2.6-13.48
		c2.52,3.78-0.58,13.55-0.58,13.55s7.21-11.25,7.19-9.41c-0.05,5.68-5.55,10.13-5.55,10.13s11.54-8.55,9.65-5.08
		c-1.89,3.47-9.27,6.74-9.27,6.74s13.31-2.68,8.58-0.79c-4.73,1.89-9.23,3.19-9.23,3.19h-3.68c0,0-12.57-6.3-7.84-5.36
		C246.52,408.89,249.04,410.46,249.04,410.46z"/>
	<path class="st3" d="M392.94,395.05c0,0-7.29-7.55-5.24-7.33c2.05,0.23,5.88,5.88,5.88,5.88s0.05-12.45,1.87-9.72
		c1.82,2.73-0.42,9.78-0.42,9.78s5.2-8.11,5.19-6.79c-0.04,4.1-4.01,7.31-4.01,7.31s8.33-6.17,6.96-3.67
		c-1.36,2.5-6.69,4.87-6.69,4.87s9.6-1.94,6.19-0.57c-3.41,1.36-6.66,2.3-6.66,2.3h-2.65c0,0-9.06-4.55-5.65-3.87
		C391.12,393.92,392.94,395.05,392.94,395.05z"/>
	<path class="st3" d="M675.97,376.98c0,0-5.67-5.88-4.08-5.7s4.57,4.57,4.57,4.57s0.04-9.69,1.46-7.57s-0.32,7.61-0.32,7.61
		s4.05-6.31,4.04-5.28c-0.03,3.19-3.12,5.69-3.12,5.69s6.48-4.8,5.42-2.85c-1.06,1.95-5.21,3.79-5.21,3.79s7.47-1.51,4.82-0.45
		c-2.65,1.06-5.18,1.79-5.18,1.79h-2.06c0,0-7.05-3.54-4.4-3.01C674.55,376.09,675.97,376.98,675.97,376.98z"/>
	<path class="st0" d="M293.9,395.09c0,0-10.11-10.47-7.27-10.16c2.84,0.32,8.15,8.15,8.15,8.15s0.07-17.26,2.6-13.48
		c2.52,3.78-0.58,13.55-0.58,13.55s7.21-11.25,7.19-9.41c-0.05,5.68-5.55,10.13-5.55,10.13s11.54-8.55,9.65-5.08
		c-1.89,3.47-9.27,6.74-9.27,6.74s13.31-2.68,8.58-0.79c-4.73,1.89-9.23,3.19-9.23,3.19h-3.68c0,0-12.57-6.3-7.84-5.36
		C291.38,393.52,293.9,395.09,293.9,395.09z"/>
	<path class="st0" d="M220.96,388.14c0,0-6.78-7.02-4.88-6.81c1.9,0.21,5.46,5.46,5.46,5.46s0.05-11.58,1.74-9.04
		c1.69,2.54-0.39,9.09-0.39,9.09s4.83-7.54,4.82-6.31c-0.03,3.81-3.72,6.79-3.72,6.79s7.74-5.73,6.47-3.41
		c-1.27,2.33-6.22,4.52-6.22,4.52s8.92-1.8,5.75-0.53c-3.17,1.27-6.19,2.14-6.19,2.14h-2.47c0,0-8.43-4.23-5.26-3.59
		C219.27,387.08,220.96,388.14,220.96,388.14z"/>
	<path class="st0" d="M136.26,415.88c0,0-6.78-7.02-4.88-6.81c1.9,0.21,5.46,5.46,5.46,5.46s0.05-11.58,1.74-9.04
		c1.69,2.54-0.39,9.09-0.39,9.09s4.83-7.54,4.82-6.31c-0.03,3.81-3.72,6.79-3.72,6.79s7.74-5.73,6.47-3.41
		c-1.27,2.33-6.22,4.52-6.22,4.52s8.92-1.8,5.75-0.53c-3.17,1.27-6.19,2.14-6.19,2.14h-2.47c0,0-8.43-4.23-5.26-3.59
		C134.57,414.82,136.26,415.88,136.26,415.88z"/>
	<path class="st0" d="M363.03,417.24c0,0-6.78-7.02-4.88-6.81c1.9,0.21,5.46,5.46,5.46,5.46s0.05-11.58,1.74-9.04
		c1.69,2.54-0.39,9.09-0.39,9.09s4.83-7.54,4.82-6.31c-0.03,3.81-3.72,6.79-3.72,6.79s7.74-5.73,6.47-3.41
		c-1.27,2.33-6.22,4.52-6.22,4.52s8.92-1.8,5.75-0.53c-3.17,1.27-6.19,2.14-6.19,2.14h-2.47c0,0-8.43-4.23-5.26-3.59
		C361.34,416.18,363.03,417.24,363.03,417.24z"/>
	<path class="st0" d="M473,417.6c0,0-6.78-7.02-4.88-6.81c1.9,0.21,5.46,5.46,5.46,5.46s0.05-11.58,1.74-9.04
		c1.69,2.54-0.39,9.09-0.39,9.09s4.83-7.54,4.82-6.31c-0.03,3.81-3.72,6.79-3.72,6.79s7.74-5.73,6.47-3.41
		c-1.27,2.33-6.22,4.52-6.22,4.52s8.92-1.8,5.75-0.53c-3.17,1.27-6.19,2.14-6.19,2.14h-2.47c0,0-8.43-4.23-5.26-3.59
		S473,417.6,473,417.6z"/>
	<path class="st0" d="M677.47,395.63c0,0-10.32-10.69-7.42-10.37c2.9,0.32,8.32,8.32,8.32,8.32s0.08-17.63,2.65-13.76
		c2.57,3.86-0.59,13.84-0.59,13.84s7.36-11.48,7.34-9.61c-0.05,5.8-5.67,10.34-5.67,10.34s11.79-8.73,9.86-5.19
		c-1.93,3.54-9.47,6.89-9.47,6.89s13.59-2.74,8.76-0.81c-4.83,1.93-9.42,3.26-9.42,3.26h-3.75c0,0-12.83-6.44-8-5.47
		C674.89,394.03,677.47,395.63,677.47,395.63z"/>
	<path class="st0" d="M62.54,395.63c0,0-10.32-10.69-7.42-10.37c2.9,0.32,8.32,8.32,8.32,8.32s0.08-17.63,2.65-13.76
		c2.57,3.86-0.59,13.84-0.59,13.84s7.36-11.48,7.34-9.61c-0.05,5.8-5.67,10.34-5.67,10.34s11.79-8.73,9.86-5.19
		c-1.93,3.54-9.47,6.89-9.47,6.89s13.59-2.74,8.76-0.81c-4.83,1.93-9.42,3.26-9.42,3.26h-3.75c0,0-12.83-6.44-8-5.47
		C59.96,394.03,62.54,395.63,62.54,395.63z"/>
	<g>
		<path class="st0" d="M113.45,380.54c0,0-10.56-18.21-7.55-19.62c3.01-1.41,9.24,12.45,9.24,12.45s-1.21-26.11,1.61-23.7
			c2.81,2.41,5.42,20.89,5.42,20.89s5.62-20.08,7.43-15.87c1.81,4.22-1.44,16.98-1.44,16.98s8.07-15.37,8.88-10.35
			c0.8,5.02-3.82,13.25-3.82,13.25s10.64-10.64,11.45-6.43c0.8,4.22-2.81,8.43-2.81,8.43s14.06-7.63,10.64-3.41
			c-3.41,4.22-8.43,9.64-8.43,9.64s13.46-4.82,11.85-2.01c-1.61,2.81-7.63,5.82-7.63,5.82s11.05-2.01,9.84-0.2
			c-1.21,1.81-4.01,3.58-4.01,3.58h-50.01c0,0-13.25-4.79-8.03-5.19c5.22-0.4,10.04,1.81,10.04,1.81s-16.27-11.05-8.64-11.85
			c7.63-0.8,13.86,8.84,13.86,8.84s-10.84-15.26-7.03-12.85L113.45,380.54z"/>
		<path class="st8" d="M114.13,385.72c0,0-13.64-14.13-9.81-13.7s10.99,10.99,10.99,10.99s0.1-23.29,3.5-18.19
			c3.4,5.1-0.78,18.28-0.78,18.28s9.73-15.17,9.7-12.69c-0.07,7.67-7.49,13.66-7.49,13.66s15.57-11.54,13.02-6.86
			c-2.55,4.68-12.51,9.1-12.51,9.1s17.95-3.62,11.57-1.07c-6.38,2.55-12.45,4.3-12.45,4.3h-4.96c0,0-16.95-8.51-10.57-7.23
			C110.72,383.59,114.13,385.72,114.13,385.72z"/>
	</g>
	<g>
		<path class="st0" d="M563.2,412.58c0,0-19.96-34.42-14.27-37.08c5.69-2.66,17.46,23.53,17.46,23.53s-2.28-49.35,3.04-44.79
			c5.31,4.56,10.25,39.48,10.25,39.48s10.63-37.96,14.04-29.99c3.42,7.97-2.73,32.09-2.73,32.09s15.26-29.05,16.78-19.57
			c1.52,9.49-7.21,25.05-7.21,25.05s20.12-20.12,21.64-12.15c1.52,7.97-5.31,15.94-5.31,15.94s26.57-14.42,20.12-6.45
			c-6.45,7.97-15.94,18.22-15.94,18.22s25.43-9.11,22.4-3.8c-3.04,5.31-14.42,11.01-14.42,11.01s20.88-3.8,18.6-0.38
			c-2.28,3.42-7.58,6.77-7.58,6.77h-94.53c0,0-25.05-9.05-15.18-9.81c9.87-0.76,18.98,3.42,18.98,3.42s-30.75-20.88-16.32-22.4
			c14.42-1.52,26.19,16.7,26.19,16.7s-20.5-28.85-13.29-24.29L563.2,412.58z"/>
		<path class="st8" d="M564.49,422.38c0,0-25.77-26.7-18.54-25.9s20.77,20.77,20.77,20.77s0.19-44.02,6.62-34.38
			c6.43,9.65-1.47,34.56-1.47,34.56s18.38-28.68,18.34-23.99c-0.13,14.49-14.16,25.82-14.16,25.82s29.44-21.8,24.61-12.96
			c-4.82,8.84-23.64,17.2-23.64,17.2s33.93-6.84,21.88-2.02c-12.06,4.82-23.53,8.13-23.53,8.13h-9.38c0,0-32.04-16.08-19.98-13.66
			C558.06,418.36,564.49,422.38,564.49,422.38z"/>
	</g>
</g>
<g id="Rocks">
	<g>
		<g>
			<path class="st9" d="M147.85,381.57c0,0,2.04-1.85,3.79-1.85c1.75,0,7.1,2.57,7.1,2.57s2.14,3.3,2.33,3.49
				c0.19,0.2,2.82,1.32,3.01,1.78c0.19,0.46,0.58,1.98,0.58,1.98h-16.34l-3.01-7.91L147.85,381.57z"/>
			<path class="st3" d="M151.64,379.72l-0.1,1.56c0,0,4.18,2.43,4.08,3.31c-0.1,0.88-0.97,2.92-0.97,2.92l2.14,2.24h-11.38
				l0.88-6.71C146.29,383.03,148.72,379.53,151.64,379.72z"/>
		</g>
		<g>
			<path class="st9" d="M126.55,380.6c0,0,8.17-12.25,10.02-12.45c1.85-0.19,5.74,1.36,7.2,3.89c1.46,2.53,2.82,7.49,2.92,7.78
				c0.1,0.29,0.49,0.49,2.72,4.08c2.24,3.6,2.14,5.64,2.14,5.64h-31.61c0,0,0.68-3.21,1.85-5.06s3.89-2.53,3.89-2.53L126.55,380.6z"
				/>
			<path class="st3" d="M139.09,389.35c0,0-0.88-2.14-0.97-2.43c-0.1-0.29-0.1-3.11-0.39-4.28c-0.29-1.17-2.72-4.77-2.72-4.77
				l1.75-5.06l-0.88-0.68l1.46-3.6l-0.82-0.38c-1.92,0.34-9.98,12.44-9.98,12.44l-0.88,1.36c0,0-2.72,0.68-3.89,2.53
				c-1,1.58-1.64,4.15-1.8,4.86H139.09z"/>
		</g>
	</g>
	<g>
		<g>
			<path class="st9" d="M462.84,384.62c0,0,1.28-1.16,2.38-1.16c1.1,0,4.45,1.61,4.45,1.61s1.34,2.07,1.46,2.19
				c0.12,0.12,1.77,0.83,1.89,1.12c0.12,0.29,0.37,1.24,0.37,1.24h-10.24l-1.89-4.96L462.84,384.62z"/>
			<path class="st3" d="M465.22,383.46l-0.06,0.98c0,0,2.62,1.52,2.56,2.07s-0.61,1.83-0.61,1.83l1.34,1.4h-7.13l0.55-4.21
				C461.86,385.53,463.39,383.34,465.22,383.46z"/>
		</g>
		<g>
			<path class="st9" d="M449.48,384.01c0,0,5.12-7.68,6.28-7.81c1.16-0.12,3.6,0.85,4.51,2.44c0.91,1.59,1.77,4.7,1.83,4.88
				c0.06,0.18,0.3,0.3,1.71,2.56c1.4,2.26,1.34,3.54,1.34,3.54h-19.82c0,0,0.43-2.01,1.16-3.17c0.73-1.16,2.44-1.59,2.44-1.59
				L449.48,384.01z"/>
			<path class="st3" d="M457.35,389.5c0,0-0.55-1.34-0.61-1.52c-0.06-0.18-0.06-1.95-0.24-2.68c-0.18-0.73-1.71-2.99-1.71-2.99
				l1.1-3.17l-0.55-0.43l0.91-2.26l-0.51-0.24c-1.2,0.22-6.26,7.8-6.26,7.8l-0.55,0.85c0,0-1.71,0.43-2.44,1.59
				c-0.63,0.99-1.03,2.6-1.13,3.05H457.35z"/>
		</g>
	</g>
	<g>
		<g>
			<path class="st9" d="M628.22,414.53c0,0,3.86-3.49,7.17-3.49c3.31,0,13.42,4.86,13.42,4.86s4.04,6.23,4.41,6.6
				c0.37,0.37,5.33,2.49,5.7,3.36c0.37,0.87,1.1,3.74,1.1,3.74h-30.88l-5.7-14.95L628.22,414.53z"/>
			<path class="st3" d="M635.39,411.04l-0.18,2.94c0,0,7.9,4.6,7.72,6.25c-0.18,1.65-1.84,5.51-1.84,5.51l4.04,4.23h-21.51
				l1.65-12.68C625.28,417.29,629.88,410.68,635.39,411.04z"/>
		</g>
		<g>
			<path class="st9" d="M587.96,412.7c0,0,15.44-23.16,18.93-23.53c3.49-0.37,10.85,2.57,13.6,7.35c2.76,4.78,5.33,14.15,5.51,14.71
				c0.18,0.55,0.92,0.92,5.15,7.72c4.23,6.8,4.04,10.66,4.04,10.66h-59.74c0,0,1.29-6.07,3.49-9.56c2.21-3.49,7.35-4.78,7.35-4.78
				L587.96,412.7z"/>
			<path class="st3" d="M611.68,429.24c0,0-1.65-4.04-1.84-4.6c-0.18-0.55-0.18-5.88-0.74-8.09c-0.55-2.21-5.15-9.01-5.15-9.01
				l3.31-9.56l-1.65-1.29l2.76-6.8l-1.54-0.72c-3.62,0.65-18.86,23.51-18.86,23.51l-1.65,2.57c0,0-5.15,1.29-7.35,4.78
				c-1.89,2.99-3.1,7.84-3.41,9.19H611.68z"/>
		</g>
	</g>
</g>
</svg>
