<?xml version="1.0" encoding="utf-8"?>
<!-- Generator: Adobe Illustrator 26.4.1, SVG Export Plug-In . SVG Version: 6.00 Build 0)  -->
<svg version="1.1" id="Layer_1" xmlns="http://www.w3.org/2000/svg" xmlns:xlink="http://www.w3.org/1999/xlink" x="0px" y="0px"
	 viewBox="0 0 256 256" style="enable-background:new 0 0 256 256;" xml:space="preserve">
<style type="text/css">
	.st0{fill:#00852D;}
	.st1{fill:#00A552;}
	.st2{fill:#5BC387;}
</style>
<g>
	<polygon class="st0" points="187.45,136.06 175.69,133.22 204.21,185.35 192.92,182.07 210.13,218.89 218.55,229.47 255.82,229.47 
		232.34,188.8 242.41,188.8 219.27,148.73 229,148.73 208.61,113.4 215.59,113.4 188.77,66.94 168.31,100.98 	"/>
	<polygon class="st1" points="91.65,104.3 104.53,125.5 96.32,124.28 117.13,159.06 105.77,158.25 120.51,191.04 100.96,180.89 
		120.74,229.68 223.83,229.68 218.55,229.47 183.11,173.86 194.87,178.84 179.16,151.62 166.76,126.31 178.92,129.15 152.61,84.58 
		161.35,84.58 127.82,26.52 94.3,84.58 103.03,84.58 	"/>
	<polygon class="st2" points="133.92,229.68 110.44,191.04 120.51,191.04 97.38,152.97 109.95,154.19 86.71,119.41 93.69,119.41 
		66.87,75.28 40.05,119.41 47.04,119.41 26.64,152.97 36.37,152.97 13.23,191.04 23.3,191.04 -0.18,229.68 	"/>
</g>
</svg>
