<?xml version="1.0" encoding="UTF-8"?>
<svg id="Layer_1" data-name="Layer 1" xmlns="http://www.w3.org/2000/svg" viewBox="0 0 300 400">
  <defs>
    <style>
      .cls-1 {
        fill: #fff;
      }

      .cls-2 {
        fill: #0163d1;
      }

      .cls-3 {
        fill: #4f92df;
      }
    </style>
  </defs>
  <path class="cls-2" d="M294.46,118v223.94c0,27.65-22.41,50.06-50.06,50.06H55.6c-27.65,0-50.06-22.41-50.06-50.06V58.06C5.54,30.41,27.95,8,55.6,8H184.46l110,110Z"/>
  <polygon class="cls-3" points="294.46 118 184.46 118 184.46 8 294.46 118"/>
  <g>
    <path class="cls-1" d="M102.14,257.85c4.49,2.38,7.96,5.71,10.42,10.01,2.46,4.3,3.69,9.26,3.69,14.88s-1.23,10.51-3.69,14.84c-2.46,4.32-5.95,7.67-10.46,10.05-4.51,2.38-9.74,3.57-15.69,3.57h-21.32v-56.91h21.32c6,0,11.24,1.19,15.73,3.57Zm-4.38,37.05c2.92-2.86,4.38-6.92,4.38-12.16s-1.46-9.32-4.38-12.24c-2.92-2.92-7-4.38-12.24-4.38h-6.57v33.08h6.57c5.24,0,9.32-1.43,12.24-4.3Z"/>
    <path class="cls-1" d="M136.23,308.03c-4.46-2.48-8-5.96-10.62-10.42-2.62-4.46-3.93-9.47-3.93-15.04s1.31-10.57,3.93-15c2.62-4.43,6.16-7.89,10.62-10.38,4.46-2.49,9.36-3.73,14.71-3.73s10.25,1.24,14.71,3.73c4.46,2.49,7.97,5.95,10.54,10.38,2.57,4.43,3.85,9.43,3.85,15s-1.3,10.58-3.89,15.04-6.11,7.93-10.54,10.42c-4.43,2.49-9.32,3.73-14.67,3.73s-10.26-1.24-14.71-3.73Zm25.62-13.46c2.73-3.03,4.09-7.02,4.09-12s-1.37-9.04-4.09-12.04c-2.73-3-6.36-4.5-10.9-4.5s-8.26,1.49-10.98,4.46c-2.73,2.97-4.09,7-4.09,12.08s1.36,9.04,4.09,12.04c2.73,3,6.39,4.5,10.98,4.5s8.17-1.51,10.9-4.54Z"/>
    <path class="cls-1" d="M189.04,267.62c2.43-4.4,5.82-7.84,10.17-10.3,4.35-2.46,9.28-3.69,14.79-3.69,6.76,0,12.54,1.78,17.35,5.35,4.81,3.57,8.03,8.43,9.65,14.59h-15.24c-1.13-2.38-2.74-4.19-4.82-5.43-2.08-1.24-4.45-1.87-7.09-1.87-4.27,0-7.73,1.49-10.38,4.46-2.65,2.97-3.97,6.95-3.97,11.92s1.32,8.95,3.97,11.92c2.65,2.97,6.11,4.46,10.38,4.46,2.65,0,5.01-.62,7.09-1.86,2.08-1.24,3.69-3.05,4.82-5.43h15.24c-1.62,6.16-4.84,11.01-9.65,14.55-4.81,3.54-10.59,5.31-17.35,5.31-5.51,0-10.44-1.23-14.79-3.69-4.35-2.46-7.74-5.88-10.17-10.25-2.43-4.38-3.65-9.38-3.65-15s1.22-10.63,3.65-15.04Z"/>
  </g>
</svg>