<?xml version="1.0" encoding="UTF-8"?>
<svg id="Layer_1" data-name="Layer 1" xmlns="http://www.w3.org/2000/svg" viewBox="0 0 300 400">
  <defs>
    <style>
      .cls-1 {
        fill: #00dd8b;
      }

      .cls-2 {
        fill: #00cd55;
      }

      .cls-3 {
        fill: #fefefe;
      }
    </style>
  </defs>
  <path class="cls-2" d="M294.46,118v223.94c0,27.65-22.41,50.06-50.06,50.06H55.6c-27.65,0-50.06-22.41-50.06-50.06V58.06C5.54,30.41,27.95,8,55.6,8H184.46l110,110Z"/>
  <polygon class="cls-1" points="294.46 118 184.46 118 184.46 8 294.46 118"/>
  <path class="cls-3" d="M211.86,233.78c-.06-8.44-5.59-13.67-14.01-13.68-31.79-.04-63.58-.04-95.36,0-8.95,0-14.4,5.5-14.42,14.49-.04,19.82-.04,39.65,0,59.47,.02,8.95,5.55,14.41,14.48,14.42,15.83,.02,31.66,0,47.5,0,15.83,0,31.66,.01,47.49,0,8.7-.01,14.26-5.12,14.33-13.73,.15-20.32,.15-40.65,0-60.97Zm-83.78,2.94c7.81,.08,14.16,6.59,14.08,14.45-.08,7.96-6.4,14.26-14.27,14.22-7.96-.04-14.55-6.72-14.38-14.59,.16-7.71,6.83-14.15,14.57-14.07Zm63.52,63.03c-13.83-.06-27.67-.01-41.5-.01-15.45,0-30.91,0-46.36,0-2.53,0-5.07,.14-6.32-2.78-1.32-3.1,.24-5.09,2.37-7.12,4.33-4.13,8.57-8.36,12.69-12.69,1.63-1.71,2.64-1.97,4.39-.08,3.63,3.94,7.52,7.64,11.33,11.41,3.25,3.22,5.25,3.24,8.52-.02,10.95-10.91,21.92-21.79,32.74-32.83,2.06-2.11,3.11-2.49,5.37-.14,8.38,8.71,16.96,17.23,25.63,25.67,2.06,2,2.76,4.03,2.79,6.84,.11,12.44-.22,11.81-11.63,11.76Z"/>
</svg>