<?xml version="1.0" encoding="UTF-8"?>
<svg id="Layer_1" data-name="Layer 1" xmlns="http://www.w3.org/2000/svg" viewBox="0 0 300 400">
  <defs>
    <style>
      .cls-1 {
        fill: #fff;
      }

      .cls-2 {
        fill: #d23b35;
      }

      .cls-3 {
        fill: #d6504d;
      }
    </style>
  </defs>
  <path class="cls-2" d="M294.46,118v223.94c0,27.65-22.41,50.06-50.06,50.06H55.6c-27.65,0-50.06-22.41-50.06-50.06V58.06C5.54,30.41,27.95,8,55.6,8H184.46l110,110Z"/>
  <polygon class="cls-3" points="294.46 118 184.46 118 184.46 8 294.46 118"/>
  <g>
    <path class="cls-1" d="M117.82,281.64c-1.51,2.73-3.84,4.93-6.97,6.61-3.13,1.68-7.03,2.51-11.67,2.51h-8.59v20.43h-13.86v-56.91h22.46c4.54,0,8.38,.78,11.51,2.35,3.13,1.57,5.49,3.73,7.05,6.49,1.57,2.76,2.35,5.92,2.35,9.48,0,3.3-.76,6.31-2.27,9.04Zm-13.78-3.77c1.3-1.24,1.95-3,1.95-5.27s-.65-4.03-1.95-5.27-3.27-1.87-5.92-1.87h-7.54v14.27h7.54c2.65,0,4.62-.62,5.92-1.87Z"/>
    <path class="cls-1" d="M164.35,257.85c4.48,2.38,7.96,5.71,10.42,10.01s3.69,9.26,3.69,14.88-1.23,10.51-3.69,14.84c-2.46,4.32-5.95,7.67-10.46,10.05-4.51,2.38-9.74,3.57-15.69,3.57h-21.32v-56.91h21.32c6,0,11.24,1.19,15.73,3.57Zm-4.38,37.05c2.92-2.86,4.38-6.92,4.38-12.16s-1.46-9.32-4.38-12.24-7-4.38-12.24-4.38h-6.57v33.08h6.57c5.24,0,9.32-1.43,12.24-4.3Z"/>
    <path class="cls-1" d="M223.29,254.28v11.11h-23.19v12h17.35v10.78h-17.35v23.02h-13.86v-56.91h37.05Z"/>
  </g>
</svg>