<?xml version="1.0" encoding="UTF-8"?>
<svg id="Layer_1" data-name="Layer 1" xmlns="http://www.w3.org/2000/svg" viewBox="0 0 300 400">
  <defs>
    <style>
      .cls-1 {
        fill: #fff;
      }

      .cls-2 {
        fill: #317141;
      }

      .cls-3 {
        fill: #619b79;
      }
    </style>
  </defs>
  <path class="cls-2" d="M294.46,118v223.94c0,27.65-22.41,50.06-50.06,50.06H55.6c-27.65,0-50.06-22.41-50.06-50.06V58.06C5.54,30.41,27.95,8,55.6,8H184.46l110,110Z"/>
  <polygon class="cls-3" points="294.46 118 184.46 118 184.46 8 294.46 118"/>
  <g>
    <path class="cls-1" d="M117.41,311.19l-11.59-17.43-10.21,17.43h-15.73l18.24-28.94-18.65-27.97h16.13l11.43,17.19,10.05-17.19h15.73l-18.08,28.7,18.81,28.21h-16.13Z"/>
    <path class="cls-1" d="M154.38,300.49h18.16v10.7h-32.02v-56.91h13.86v46.21Z"/>
    <path class="cls-1" d="M188.59,309.73c-3.3-1.35-5.93-3.35-7.9-6-1.97-2.65-3.01-5.84-3.12-9.57h14.75c.22,2.11,.95,3.72,2.19,4.82,1.24,1.11,2.86,1.66,4.86,1.66s3.67-.47,4.86-1.42c1.19-.94,1.78-2.26,1.78-3.93,0-1.4-.47-2.57-1.42-3.49-.95-.92-2.11-1.67-3.49-2.27-1.38-.59-3.34-1.27-5.88-2.03-3.68-1.13-6.68-2.27-9-3.41-2.32-1.13-4.32-2.81-6-5.03-1.68-2.22-2.51-5.11-2.51-8.67,0-5.3,1.92-9.44,5.76-12.44,3.84-3,8.84-4.5,15-4.5s11.32,1.5,15.16,4.5c3.84,3,5.89,7.17,6.16,12.53h-15c-.11-1.84-.78-3.28-2.03-4.34-1.24-1.05-2.84-1.58-4.78-1.58-1.68,0-3.03,.45-4.05,1.34-1.03,.89-1.54,2.18-1.54,3.85,0,1.84,.86,3.27,2.59,4.3,1.73,1.03,4.43,2.14,8.11,3.32,3.67,1.24,6.66,2.43,8.96,3.57,2.3,1.13,4.28,2.78,5.96,4.95,1.67,2.16,2.51,4.95,2.51,8.35s-.83,6.19-2.47,8.84c-1.65,2.65-4.04,4.76-7.17,6.32-3.13,1.57-6.84,2.35-11.11,2.35s-7.89-.67-11.19-2.03Z"/>
  </g>
</svg>